<svg width="18" height="18" viewBox="0 0 18 18" fill="none" xmlns="http://www.w3.org/2000/svg">
<path fill-rule="evenodd" clip-rule="evenodd" d="M5.22678 10.8517C5.27903 10.7994 5.3411 10.7578 5.40944 10.7294C5.47778 10.7011 5.55104 10.6865 5.62503 10.6865C5.69902 10.6865 5.77228 10.7011 5.84062 10.7294C5.90895 10.7578 5.97103 10.7994 6.02328 10.8517L9.00003 13.8296L11.9768 10.8517C12.0824 10.7461 12.2257 10.6868 12.375 10.6868C12.5244 10.6868 12.6677 10.7461 12.7733 10.8517C12.8789 10.9574 12.9382 11.1006 12.9382 11.25C12.9382 11.3994 12.8789 11.5426 12.7733 11.6482L9.39828 15.0232C9.34603 15.0756 9.28395 15.1172 9.21562 15.1455C9.14728 15.1739 9.07402 15.1885 9.00003 15.1885C8.92604 15.1885 8.85278 15.1739 8.78444 15.1455C8.7161 15.1172 8.65403 15.0756 8.60178 15.0232L5.22678 11.6482C5.17439 11.596 5.13283 11.5339 5.10448 11.4656C5.07612 11.3972 5.06152 11.324 5.06152 11.25C5.06152 11.176 5.07612 11.1027 5.10448 11.0344C5.13283 10.9661 5.17439 10.904 5.22678 10.8517Z" fill="white"/>
<path fill-rule="evenodd" clip-rule="evenodd" d="M9 2.8125C9.14918 2.8125 9.29226 2.87176 9.39775 2.97725C9.50324 3.08274 9.5625 3.22582 9.5625 3.375V13.5C9.5625 13.6492 9.50324 13.7923 9.39775 13.8977C9.29226 14.0032 9.14918 14.0625 9 14.0625C8.85082 14.0625 8.70774 14.0032 8.60225 13.8977C8.49676 13.7923 8.4375 13.6492 8.4375 13.5V3.375C8.4375 3.22582 8.49676 3.08274 8.60225 2.97725C8.70774 2.87176 8.85082 2.8125 9 2.8125Z" fill="white"/>
</svg>
