<svg width="18" height="18" viewBox="0 0 18 18" fill="none" xmlns="http://www.w3.org/2000/svg">
<path fill-rule="evenodd" clip-rule="evenodd" d="M5.22678 7.14825C5.27903 7.20064 5.3411 7.2422 5.40944 7.27055C5.47778 7.29891 5.55104 7.31351 5.62503 7.31351C5.69902 7.31351 5.77228 7.29891 5.84062 7.27055C5.90895 7.2422 5.97103 7.20064 6.02328 7.14825L9.00003 4.17038L11.9768 7.14825C12.0824 7.25387 12.2257 7.31321 12.375 7.31321C12.5244 7.31321 12.6677 7.25387 12.7733 7.14825C12.8789 7.04263 12.9382 6.89937 12.9382 6.75C12.9382 6.60063 12.8789 6.45737 12.7733 6.35175L9.39828 2.97675C9.34603 2.92437 9.28395 2.88281 9.21562 2.85445C9.14728 2.82609 9.07402 2.8115 9.00003 2.8115C8.92604 2.8115 8.85278 2.82609 8.78444 2.85445C8.7161 2.88281 8.65403 2.92437 8.60178 2.97675L5.22678 6.35175C5.17439 6.404 5.13283 6.46608 5.10448 6.53441C5.07612 6.60275 5.06152 6.67601 5.06152 6.75C5.06152 6.82399 5.07612 6.89725 5.10448 6.96559C5.13283 7.03393 5.17439 7.096 5.22678 7.14825Z" fill="white"/>
<path fill-rule="evenodd" clip-rule="evenodd" d="M9 15.1875C9.14918 15.1875 9.29226 15.1282 9.39775 15.0227C9.50324 14.9173 9.5625 14.7742 9.5625 14.625V4.5C9.5625 4.35082 9.50324 4.20774 9.39775 4.10225C9.29226 3.99676 9.14918 3.9375 9 3.9375C8.85082 3.9375 8.70774 3.99676 8.60225 4.10225C8.49676 4.20774 8.4375 4.35082 8.4375 4.5V14.625C8.4375 14.7742 8.49676 14.9173 8.60225 15.0227C8.70774 15.1282 8.85082 15.1875 9 15.1875Z" fill="white"/>
</svg>
