<svg width="30" height="30" viewBox="0 0 30 30" fill="none" xmlns="http://www.w3.org/2000/svg">
<path d="M26.278 26.502V10.2L14.9679 3.00003L3.65774 10.2V26.502H9.31281V22.377C9.31281 20.7857 9.90861 19.2596 10.9691 18.1344C12.0297 17.0092 13.4681 16.377 14.9679 16.377C16.4677 16.377 17.9061 17.0092 18.9666 18.1344C20.0271 19.2596 20.6229 20.7857 20.6229 22.377V26.502H26.278ZM17.7954 29.502V22.377C17.7954 21.5814 17.4975 20.8183 16.9672 20.2557C16.437 19.6931 15.7178 19.377 14.9679 19.377C14.218 19.377 13.4988 19.6931 12.9685 20.2557C12.4382 20.8183 12.1403 21.5814 12.1403 22.377V29.502H3.65774C2.90783 29.502 2.18863 29.186 1.65837 28.6234C1.1281 28.0607 0.8302 27.2977 0.8302 26.502V10.2C0.830195 9.68197 0.956634 9.17274 1.1972 8.72192C1.43777 8.27111 1.78428 7.89407 2.20297 7.62753L13.5131 0.427529C13.9526 0.147776 14.4554 0 14.9679 0C15.4804 0 15.9832 0.147776 16.4226 0.427529L27.7328 7.62753C28.1515 7.89407 28.498 8.27111 28.7386 8.72192C28.9791 9.17274 29.1056 9.68197 29.1056 10.2V26.502C29.1056 27.2977 28.8077 28.0607 28.2774 28.6234C27.7471 29.186 27.0279 29.502 26.278 29.502H17.7954Z" fill="#AAAAAA"/>
</svg>
