<svg width="31" height="30" viewBox="0 0 31 30" fill="none" xmlns="http://www.w3.org/2000/svg">
<path d="M19.8939 29.502V22.002C19.8939 20.8086 19.4309 19.664 18.6069 18.82C17.7829 17.9761 16.6653 17.502 15.5 17.502C14.3347 17.502 13.2171 17.9761 12.3931 18.82C11.569 19.664 11.1061 20.8086 11.1061 22.002V29.502H3.783C3.00612 29.502 2.26106 29.186 1.71172 28.6234C1.16238 28.0607 0.85376 27.2977 0.85376 26.502V10.2C0.853755 9.68197 0.984742 9.17274 1.23397 8.72192C1.48319 8.27111 1.84216 7.89407 2.27591 7.62753L13.9929 0.427529C14.4481 0.147776 14.9691 0 15.5 0C16.0309 0 16.5518 0.147776 17.0071 0.427529L28.7241 7.62753C29.1578 7.89407 29.5168 8.27111 29.766 8.72192C30.0152 9.17274 30.1462 9.68197 30.1462 10.2V26.502C30.1462 27.2977 29.8376 28.0607 29.2883 28.6234C28.7389 29.186 27.9939 29.502 27.217 29.502H19.8939Z" fill="url(#paint0_linear_1_490)"/>
<defs>
<linearGradient id="paint0_linear_1_490" x1="15.5" y1="0" x2="15.5" y2="29.502" gradientUnits="userSpaceOnUse">
<stop stop-color="#549994"/>
<stop offset="1" stop-color="#408782"/>
</linearGradient>
</defs>
</svg>
